<svg width="51" height="84" viewBox="0 0 51 84" fill="none" xmlns="http://www.w3.org/2000/svg">
<path d="M7 13.0625H12.5938L14.8125 41.2188L17.3438 13.0625H22.9375L27.9375 64H21.125L19.5 39.25L15.8125 64H13.5L10.125 39.25L8.28125 64H1.6875L7 13.0625ZM30.875 13.0625H34.5625C38.875 13.0625 42.2292 14.3021 44.625 16.7812C47.0417 19.2604 48.25 22.7292 48.25 27.1875C48.25 29.7083 47.7604 31.9479 46.7812 33.9062C46.0938 35.3021 45.0208 36.6354 43.5625 37.9062C44.625 39.0729 45.4062 40.1771 45.9062 41.2188C46.9479 43.4271 47.7708 46.2604 48.375 49.7188C49 53.1771 49.5312 57.9375 49.9688 64H43.0312C42.7396 56.4167 42.0521 50.8542 40.9688 47.3125C40.1562 44.6458 39.0833 42.7708 37.75 41.6875V64H30.875V13.0625ZM38.3125 20.375V35.0625C39.4167 34.5833 40.2812 33.6979 40.9062 32.4062C41.5521 31.0938 41.875 29.5312 41.875 27.7188C41.875 25.8229 41.5625 24.25 40.9375 23C40.3125 21.7292 39.4375 20.8542 38.3125 20.375Z" fill="black"/>
<path d="M38.3841 66.901C38.8942 66.6313 40.718 67.3045 41.8315 68.1802C42.3527 68.5855 42.3643 68.6095 42.2977 69.1133C42.1776 70.0373 42.3843 71.0435 42.9895 72.5591C43.4963 73.8145 43.5189 74.0354 43.2823 75.3141C43.0409 76.647 43.0178 77.0484 43.1309 77.7403C43.2807 78.6355 43.6797 79.2975 44.5138 80.0418C45.0358 80.5129 45.0777 80.6047 44.932 80.9577C44.6345 81.6808 43.3193 82.6626 42.477 82.7802C41.712 82.8879 41.3554 82.4122 40.6167 80.2967C39.7286 77.7351 38.9697 74.3148 38.5081 70.7649C38.287 69.0593 38.1416 67.422 38.1803 67.1634C38.208 67.005 38.2257 66.9831 38.3841 66.901ZM41.5002 79.908C41.3477 80.4801 41.9548 81.0272 42.486 80.7889C42.7279 80.6799 42.7809 80.6141 42.8525 80.3531C42.9145 80.1134 42.7998 79.7679 42.599 79.606C42.4027 79.4479 42.0442 79.405 41.8267 79.5122C41.5974 79.6247 41.5657 79.6639 41.5002 79.908Z" fill="black"/>
</svg>
