<svg width="100" height="54" viewBox="0 0 100 54" fill="none" xmlns="http://www.w3.org/2000/svg">
<path d="M40.628 42.6156C40.9608 42.4397 42.1504 42.8788 42.8768 43.4501C43.2168 43.7145 43.2244 43.7301 43.1809 44.0588C43.1026 44.6615 43.2374 45.3179 43.6322 46.3065C43.9628 47.1255 43.9775 47.2695 43.8232 48.1037C43.6657 48.9731 43.6507 49.235 43.7244 49.6863C43.8222 50.2703 44.0825 50.7021 44.6265 51.1876C44.967 51.4949 44.9944 51.5548 44.8993 51.7851C44.7053 52.2568 43.8473 52.8972 43.2979 52.974C42.7989 53.0442 42.5663 52.7339 42.0844 51.3539C41.5051 49.6829 41.01 47.4518 40.7089 45.1361C40.5646 44.0236 40.4698 42.9555 40.495 42.7868C40.5132 42.6835 40.5247 42.6692 40.628 42.6156ZM42.6607 51.1004C42.5612 51.4735 42.9572 51.8304 43.3038 51.675C43.4616 51.6039 43.4962 51.5609 43.5428 51.3907C43.5833 51.2343 43.5085 51.0089 43.3775 50.9034C43.2494 50.8002 43.0156 50.7723 42.8737 50.8422C42.7241 50.9155 42.7034 50.9412 42.6607 51.1004Z" fill="#AB9140"/>
<path d="M4.41406 8.16406H7.91016L9.29688 25.7617L10.8789 8.16406H14.375L17.5 40H13.2422L12.2266 24.5312L9.92188 40H8.47656L6.36719 24.5312L5.21484 40H1.09375L4.41406 8.16406ZM18.6328 15.4883H22.3242L23.3398 32.1875L24.2383 15.4883H27.8906L25.2344 38.75C24.987 40.8464 24.388 42.3568 23.4375 43.2812C22.487 44.2188 21.2435 44.6875 19.707 44.6875C19.4336 44.6875 19.1471 44.681 18.8477 44.668V41.1133L19.4727 41.1523C20.0065 41.1523 20.4167 41.0221 20.7031 40.7617C21.0026 40.5143 21.2956 39.9544 21.582 39.082L18.6328 15.4883ZM35.8203 8.16406H38.125C40.8203 8.16406 42.9167 8.9388 44.4141 10.4883C45.9245 12.0378 46.6797 14.2057 46.6797 16.9922C46.6797 18.5677 46.3737 19.9674 45.7617 21.1914C45.332 22.0638 44.6615 22.8971 43.75 23.6914C44.4141 24.4206 44.9023 25.1107 45.2148 25.7617C45.8659 27.1419 46.3802 28.9128 46.7578 31.0742C47.1484 33.2357 47.4805 36.2109 47.7539 40H43.418C43.2357 35.2604 42.806 31.7839 42.1289 29.5703C41.6211 27.9036 40.9505 26.7318 40.1172 26.0547V40H35.8203V8.16406ZM40.4688 12.7344V21.9141C41.1589 21.6146 41.6992 21.0612 42.0898 20.2539C42.4935 19.4336 42.6953 18.457 42.6953 17.3242C42.6953 16.1393 42.5 15.1562 42.1094 14.375C41.7188 13.5807 41.1719 13.0339 40.4688 12.7344ZM56.6992 39.8828C56.1133 40.1302 55.4427 40.2539 54.6875 40.2539C52.8125 40.2539 51.1784 39.3424 49.7852 37.5195C48.3919 35.6966 47.6953 32.4674 47.6953 27.832V25.0195C47.6953 21.2695 48.2552 18.5677 49.375 16.9141C50.1302 15.7943 51.1198 15.2344 52.3438 15.2344C53.8542 15.2344 54.987 15.9049 55.7422 17.2461C56.5104 18.5742 56.8945 20.1823 56.8945 22.0703C56.8945 24.3359 56.4323 26.1393 55.5078 27.4805C54.5964 28.8216 53.3073 29.7526 51.6406 30.2734C51.6667 32.3177 52.1029 33.9062 52.9492 35.0391C53.5612 35.8464 54.2839 36.25 55.1172 36.25C55.4948 36.25 56.0221 36.0872 56.6992 35.7617V39.8828ZM52.4219 19.1016C52.0833 19.6224 51.862 20.0781 51.7578 20.4688C51.5625 21.2109 51.4648 22.0768 51.4648 23.0664V26.25C52.0247 26.0026 52.4544 25.5729 52.7539 24.9609C53.0664 24.349 53.2227 23.418 53.2227 22.168C53.2227 20.8008 52.9557 19.7786 52.4219 19.1016ZM65.0586 39.6094C64.9023 39.7396 64.6159 39.8763 64.1992 40.0195C63.7826 40.1758 63.4115 40.2539 63.0859 40.2539C62.2917 40.2539 61.5365 39.987 60.8203 39.4531C60.1172 38.9062 59.5768 38.0794 59.1992 36.9727C58.4831 34.9284 58.125 32.3438 58.125 29.2188V25.6445C58.125 21.7513 58.75 18.9062 60 17.1094C60.8724 15.8594 62.0052 15.2344 63.3984 15.2344C63.8151 15.2344 64.3685 15.319 65.0586 15.4883V19.2773L64.9609 19.2188C64.6745 19.0365 64.388 18.9453 64.1016 18.9453C63.5156 18.9453 63.0404 19.2578 62.6758 19.8828C62.1289 20.7943 61.8555 22.7148 61.8555 25.6445V28.9062C61.8555 32.5 62.0964 34.7461 62.5781 35.6445C62.8906 36.2174 63.2943 36.5039 63.7891 36.5039C64.1797 36.5039 64.6029 36.3411 65.0586 36.0156V39.6094ZM68.1445 7.91016C68.7565 7.91016 69.2708 8.125 69.6875 8.55469C70.1172 8.98438 70.332 9.4987 70.332 10.0977C70.332 10.6966 70.1172 11.2109 69.6875 11.6406C69.2708 12.0703 68.7565 12.2852 68.1445 12.2852C67.5456 12.2852 67.0312 12.0703 66.6016 11.6406C66.1849 11.2109 65.9766 10.7031 65.9766 10.1172C65.9766 9.51823 66.1914 9.00391 66.6211 8.57422C67.0638 8.13151 67.5716 7.91016 68.1445 7.91016ZM66.2891 15.4883H70.0195V40H66.2891V15.4883ZM73.5547 15.2344C74.1667 15.4818 74.6159 15.7357 74.9023 15.9961C75.1888 16.2435 75.4167 16.5625 75.5859 16.9531C76.276 15.8073 76.9466 15.2344 77.5977 15.2344C78.418 15.2344 79.1146 15.7357 79.6875 16.7383C80.638 18.3659 81.1133 21.3737 81.1133 25.7617V28.5547C81.1133 32.7474 80.4557 35.8724 79.1406 37.9297C78.2552 39.3229 77.0703 40.0977 75.5859 40.2539V44.668H71.875V19.5703C71.875 18.8932 71.6016 18.3398 71.0547 17.9102L73.5547 15.2344ZM75.5859 19.082V35.6641C76.0547 35.5599 76.4258 35.2344 76.6992 34.6875C77.168 33.7109 77.4023 31.8815 77.4023 29.1992V24.082C77.4023 21.6992 77.2135 20.1367 76.8359 19.3945C76.6406 19.0169 76.3997 18.8281 76.1133 18.8281C75.931 18.8281 75.7552 18.9128 75.5859 19.082ZM91.3477 39.8828C90.7617 40.1302 90.0911 40.2539 89.3359 40.2539C87.4609 40.2539 85.8268 39.3424 84.4336 37.5195C83.0404 35.6966 82.3438 32.4674 82.3438 27.832V25.0195C82.3438 21.2695 82.9036 18.5677 84.0234 16.9141C84.7786 15.7943 85.7682 15.2344 86.9922 15.2344C88.5026 15.2344 89.6354 15.9049 90.3906 17.2461C91.1589 18.5742 91.543 20.1823 91.543 22.0703C91.543 24.3359 91.0807 26.1393 90.1562 27.4805C89.2448 28.8216 87.9557 29.7526 86.2891 30.2734C86.3151 32.3177 86.7513 33.9062 87.5977 35.0391C88.2096 35.8464 88.9323 36.25 89.7656 36.25C90.1432 36.25 90.6706 36.0872 91.3477 35.7617V39.8828ZM87.0703 19.1016C86.7318 19.6224 86.5104 20.0781 86.4062 20.4688C86.2109 21.2109 86.1133 22.0768 86.1133 23.0664V26.25C86.6732 26.0026 87.1029 25.5729 87.4023 24.9609C87.7148 24.349 87.8711 23.418 87.8711 22.168C87.8711 20.8008 87.6042 19.7786 87.0703 19.1016ZM92.5586 35.9375C93.0143 36.4193 93.5286 36.6602 94.1016 36.6602C94.6224 36.6602 95.0456 36.4909 95.3711 36.1523C95.6966 35.8008 95.8594 35.3125 95.8594 34.6875C95.8594 33.5286 95.3646 31.5039 94.375 28.6133C93.1901 25.1367 92.5977 22.5065 92.5977 20.7227C92.5977 18.7956 92.9492 17.4023 93.6523 16.543C94.3685 15.6706 95.2865 15.2344 96.4062 15.2344C97.0964 15.2344 97.9232 15.5013 98.8867 16.0352V19.4336C98.3789 19.0039 97.9232 18.7891 97.5195 18.7891C97.1159 18.7891 96.7643 18.9518 96.4648 19.2773C96.1784 19.6029 96.0352 20.0651 96.0352 20.6641C96.0352 21.7708 96.5039 23.7174 97.4414 26.5039C98.6523 30.1237 99.2578 32.8646 99.2578 34.7266C99.2578 36.6276 98.8672 38.0273 98.0859 38.9258C97.3177 39.8112 96.2891 40.2539 95 40.2539C94.1797 40.2539 93.3659 40.0326 92.5586 39.5898V35.9375Z" fill="#AB9140"/>
</svg>
